<svg id="logo" width="418" height="82" viewBox="0 0 418 82" fill="none" xmlns="http://www.w3.org/2000/svg">
<path fill-rule="evenodd" clip-rule="evenodd" d="M286.447 77.9016C291.073 78.1904 294.851 75.2071 296.063 71.1778C297.558 72.0207 299.309 72.4433 301.134 72.2833L313.411 71.207C317.505 70.8481 321.162 67.835 321.912 63.4179L322.182 61.9817L328.5 61.4278L329.057 62.9059L329.078 62.9573C330.607 66.7974 334.407 69.3663 338.742 68.9862L350.021 67.9974C349.138 72.5554 352.396 77.2997 357.493 77.6146L370.572 78.4225C374.036 78.6365 377.604 77.0606 379.649 73.9478L381.975 70.4945L383.886 74.306L383.932 74.3906C385.621 77.5053 388.83 79.5504 392.371 79.7692L405.45 80.5772C411.735 80.9654 416.074 74.3266 413.119 68.7164L413.11 68.7002L401.326 46.272L414.996 26.7901C418.636 21.5848 415.146 14.4492 408.856 14.0606L395.777 13.2526C392.312 13.0386 388.743 14.6152 386.699 17.7294L385.117 20.0821L383.781 17.4411L383.74 17.3663C382.11 14.3601 379.041 12.2187 375.379 11.9925L362.3 11.1846C356.01 10.7959 351.669 17.4485 354.64 23.0622L365.804 44.1456L358.113 55.1829L338.111 9.12048C336.363 5.09468 332.153 2.70845 327.875 3.08347L312.645 4.41864C308.192 4.80906 304.786 8.00582 303.68 11.9023L303.646 12.0228L298.727 32.5836L299.424 21.4325C299.741 16.3462 295.94 11.7646 290.598 11.431L277.597 10.6192C274.104 10.4011 270.497 12.0055 268.456 15.2523L260.899 26.7393L254.878 14.4125C253.258 10.9319 249.876 8.88812 246.38 8.66982L233.379 7.85799C228.214 7.53542 223.629 11.4161 223.3 16.6789L221.4 47.1078C219.917 46.1162 218.124 45.532 216.159 45.532H205.233V16.432C205.233 11.3358 201.154 7 195.801 7H185.193C180.007 7 175.761 11.2463 175.761 16.432V17.8719C169.833 7.62901 158.674 1 145.543 1C129.703 1 116.733 10.6466 112.352 24.6468C106.161 15.6792 95.6972 10 83.5431 10C72.6235 10 63.0679 14.5841 56.7499 22.0186C56.7434 21.8247 56.731 21.6299 56.7126 21.4345L55.8543 12.349C55.3666 7.18624 50.7398 3.35812 45.5771 3.84581L9.62313 7.24215C4.47039 7.72889 0.546406 12.277 1.04231 17.5267L1.90057 26.6123C2.39559 31.8526 7.02241 35.6808 12.2628 35.1858L15.5302 34.8771L18.2596 63.7705C18.7464 68.9232 23.2945 72.8472 28.5442 72.3513L39.1052 71.3537C44.3455 70.8586 48.1737 66.2318 47.6786 60.9914L44.9493 32.0981L48.2167 31.7894C49.3303 31.6842 50.3756 31.3896 51.3268 30.9414C49.6689 34.9923 48.7611 39.4725 48.7611 44.236C48.7611 63.7925 63.947 78.55 83.5431 78.55C99.3851 78.55 112.345 68.9051 116.729 54.8769C122.917 63.8654 133.381 69.55 145.543 69.55C158.68 69.55 169.835 62.9179 175.761 52.654V64.09C175.761 69.2657 179.92 73.6 185.193 73.6H216.159C218.72 73.6 220.96 72.6193 222.614 71.0506C224.226 72.9202 226.562 74.162 229.229 74.3285L239.738 74.9848C244.992 75.3128 249.494 71.3395 249.822 66.086L250.001 63.2224L250.152 63.524C251.507 66.3392 254.315 68.2362 257.419 68.43L259.132 68.5369C262.218 68.7297 265.287 67.2803 267.031 64.5774L267.218 64.2975L267.039 67.1611C266.716 72.3266 270.597 76.9118 275.86 77.2404L286.447 77.9016ZM332.607 11.5104C331.92 9.92634 330.186 8.90386 328.399 9.06054L313.169 10.3957C311.382 10.5524 309.93 11.8542 309.452 13.5404L297.648 62.8858C297.183 64.7274 298.746 66.4697 300.61 66.3062L312.887 65.2299C314.441 65.0936 315.751 63.9609 316.004 62.3728L317.125 56.4021L332.51 55.0533L334.652 60.7379C335.255 62.2511 336.664 63.1454 338.218 63.0091L350.573 61.926C352.438 61.7625 353.595 59.7819 352.817 58.0492L332.607 11.5104ZM246.006 14.6582C247.485 14.7505 248.838 15.6165 249.456 16.9837L260.127 38.8292L273.511 18.4858C274.294 17.2061 275.744 16.5152 277.223 16.6075L290.224 17.4194C292.17 17.5409 293.552 19.1902 293.435 21.0586L290.465 68.6239C290.344 70.5701 288.767 72.0347 286.821 71.9132L276.234 71.2521C274.365 71.1354 272.906 69.4812 273.027 67.535L274.597 42.39L262.006 61.298C261.486 62.1252 260.518 62.6118 259.506 62.5486L257.793 62.4417C256.859 62.3833 255.959 61.78 255.545 60.8945L245.404 40.567L243.834 65.712C243.712 67.6582 242.058 69.118 240.112 68.9964L229.603 68.3402C227.656 68.2186 226.197 66.5645 226.318 64.6182L229.288 17.0529C229.405 15.1845 231.059 13.7248 233.005 13.8463L246.006 14.6582ZM199.233 16.432C199.233 14.56 197.751 13 195.801 13H185.193C183.321 13 181.761 14.56 181.761 16.432V64.09C181.761 66.04 183.321 67.6 185.193 67.6H216.159C218.109 67.6 219.591 66.04 219.591 64.09V54.964C219.591 53.092 218.109 51.532 216.159 51.532H199.233V16.432ZM83.5431 49.468C80.3272 49.468 78.3111 47.497 78.3111 44.236C78.3111 41.0253 80.3551 39.004 83.5431 39.004C86.7311 39.004 88.7751 41.0253 88.7751 44.236C88.7751 47.497 86.759 49.468 83.5431 49.468ZM140.311 35.236C140.311 38.497 142.327 40.468 145.543 40.468C148.759 40.468 150.775 38.497 150.775 35.236C150.775 32.0253 148.731 30.004 145.543 30.004C142.355 30.004 140.311 32.0253 140.311 35.236Z" fill="#AD5E64"/>
<path d="M46.1412 9.81921L10.1873 13.2156C8.24593 13.3989 6.83956 15.0987 7.01561 16.9624L7.87386 26.048C8.05725 27.9894 9.75705 29.3957 11.6984 29.2123L20.9393 28.3394L24.2329 63.2062C24.4163 65.1476 26.1161 66.5539 27.9798 66.3779L38.5408 65.3802C40.4821 65.1969 41.8885 63.4971 41.7051 61.5557L38.4115 26.6889L47.6523 25.816C49.516 25.6399 50.9224 23.9402 50.739 21.9988L49.8808 12.9132C49.7047 11.0495 48.0049 9.64316 46.1412 9.81921Z" fill="#C8C8C8"/>
<path d="M83.543 16C67.163 16 54.761 28.168 54.761 44.236C54.761 60.382 67.163 72.55 83.543 72.55C99.923 72.55 112.325 60.382 112.325 44.236C112.325 28.168 99.923 16 83.543 16ZM83.543 55.468C77.069 55.468 72.311 50.866 72.311 44.236C72.311 37.684 77.069 33.004 83.543 33.004C90.017 33.004 94.775 37.684 94.775 44.236C94.775 50.866 90.017 55.468 83.543 55.468Z" fill="#C8C8C8"/>
<path d="M145.543 7C129.163 7 116.761 19.168 116.761 35.236C116.761 51.382 129.163 63.55 145.543 63.55C161.923 63.55 174.325 51.382 174.325 35.236C174.325 19.168 161.923 7 145.543 7ZM145.543 46.468C139.069 46.468 134.311 41.866 134.311 35.236C134.311 28.684 139.069 24.004 145.543 24.004C152.017 24.004 156.775 28.684 156.775 35.236C156.775 41.866 152.017 46.468 145.543 46.468Z" fill="#C8C8C8"/>
<path d="M199.233 51.532V16.432C199.233 14.56 197.751 13 195.801 13H185.193C183.321 13 181.761 14.56 181.761 16.432V64.09C181.761 66.04 183.321 67.6 185.193 67.6H216.159C218.109 67.6 219.591 66.04 219.591 64.09V54.964C219.591 53.092 218.109 51.532 216.159 51.532H199.233Z" fill="#C8C8C8"/>
<path d="M273.511 18.4858L260.127 38.8292L249.456 16.9837C248.838 15.6165 247.485 14.7505 246.006 14.6582L233.005 13.8463C231.059 13.7248 229.405 15.1845 229.288 17.0529L226.318 64.6182C226.197 66.5645 227.656 68.2186 229.603 68.3402L240.112 68.9964C242.058 69.118 243.712 67.6582 243.834 65.712L245.404 40.567L255.545 60.8945C255.959 61.78 256.859 62.3833 257.793 62.4417L259.506 62.5486C260.518 62.6118 261.486 62.1252 262.006 61.298L274.597 42.39L273.027 67.535C272.906 69.4812 274.365 71.1354 276.234 71.2521L286.821 71.9132C288.767 72.0347 290.344 70.5701 290.465 68.6239L293.435 21.0586C293.552 19.1902 292.17 17.5409 290.224 17.4194L277.223 16.6075C275.744 16.5152 274.294 17.2061 273.511 18.4858Z" fill="#C8C8C8"/>
<path d="M338.218 63.0091L350.573 61.926C352.438 61.7625 353.595 59.7819 352.817 58.0492L332.607 11.5104C331.92 9.92634 330.186 8.90386 328.399 9.06054L313.169 10.3957C311.382 10.5524 309.93 11.8542 309.452 13.5404L297.648 62.8858C297.183 64.7274 298.746 66.4697 300.61 66.3062L312.887 65.2299C314.441 65.0936 315.751 63.9609 316.004 62.3728L317.125 56.4021L332.51 55.0533L334.652 60.7379C335.255 62.2511 336.664 63.1454 338.218 63.0091ZM319.403 43.9877L322.371 27.8327L328.106 43.2247L319.403 43.9877Z" fill="#C8C8C8"/>
<path d="M407.807 71.5073L394.312 45.8222L410.079 23.3517C411.022 22.0033 410.121 20.1502 408.486 20.0492L395.407 19.2412C393.927 19.1498 392.478 19.8418 391.7 21.0441L384.386 31.9238L378.466 20.2265C377.764 18.9328 376.489 18.0725 375.009 17.9811L361.93 17.1731C360.296 17.0721 359.173 18.8002 359.943 20.2544L372.82 44.5727L356.27 68.3234C355.327 69.6719 356.228 71.525 357.863 71.626L370.942 72.434C372.421 72.5253 373.871 71.8334 374.648 70.631L382.736 58.6269L389.207 71.5304C389.908 72.8241 391.261 73.6892 392.741 73.7806L405.82 74.5886C407.455 74.6896 408.577 72.9615 407.807 71.5073Z" fill="#C8C8C8"/>
<path d="M319.403 43.9877L328.106 43.2247L322.371 27.8327L319.403 43.9877Z" fill="#AD5E64"/>
<path d="M328.399 9.06054L328.46 9.75787L328.46 9.75787L328.399 9.06054ZM332.607 11.5104L331.965 11.7889L331.965 11.7892L332.607 11.5104ZM352.817 58.0492L352.175 58.3281L352.178 58.336L352.817 58.0492ZM350.573 61.926L350.634 62.6233L350.634 62.6233L350.573 61.926ZM338.218 63.0091L338.279 63.7065L338.279 63.7065L338.218 63.0091ZM334.652 60.7379L333.997 60.9848L334.002 60.9968L334.652 60.7379ZM332.51 55.0533L333.165 54.8064L332.977 54.3096L332.448 54.356L332.51 55.0533ZM317.125 56.4021L317.063 55.7048L316.535 55.7511L316.437 56.2729L317.125 56.4021ZM316.004 62.3728L315.316 62.2436L315.314 62.2533L315.312 62.263L316.004 62.3728ZM312.887 65.2299L312.826 64.5325L312.826 64.5325L312.887 65.2299ZM300.61 66.3062L300.549 65.6089L300.549 65.6089L300.61 66.3062ZM297.648 62.8858L298.327 63.0572L298.329 63.0487L297.648 62.8858ZM309.452 13.5404L308.778 13.3493L308.775 13.3633L308.771 13.3776L309.452 13.5404ZM313.169 10.3957L313.108 9.69839L313.108 9.69839L313.169 10.3957ZM286.447 77.9016L286.491 77.2029L286.491 77.2029L286.447 77.9016ZM296.063 71.1778L296.407 70.5681L295.645 70.1383L295.393 70.9761L296.063 71.1778ZM275.86 77.2404L275.816 77.9391L275.816 77.9391L275.86 77.2404ZM267.039 67.1611L267.737 67.2047L267.737 67.2047L267.039 67.1611ZM267.218 64.2975L267.916 64.3411L268.079 61.7414L266.635 63.9095L267.218 64.2975ZM267.031 64.5774L266.449 64.1894L266.443 64.1978L267.031 64.5774ZM259.132 68.5369L259.088 69.2356L259.088 69.2356L259.132 68.5369ZM257.419 68.43L257.463 67.7314L257.463 67.7314L257.419 68.43ZM250.152 63.524L250.782 63.2204L250.778 63.2116L250.152 63.524ZM250.001 63.2224L250.628 62.91L249.465 60.5793L249.303 63.1788L250.001 63.2224ZM249.822 66.086L250.521 66.1296L250.521 66.1296L249.822 66.086ZM239.738 74.9848L239.695 75.6834L239.695 75.6834L239.738 74.9848ZM229.229 74.3285L229.272 73.6299L229.272 73.6299L229.229 74.3285ZM222.614 71.0506L223.144 70.5935L222.665 70.0376L222.132 70.5427L222.614 71.0506ZM175.761 52.654H176.461V50.0417L175.155 52.3039L175.761 52.654ZM116.729 54.8769L117.305 54.4799L116.49 53.2952L116.061 54.6681L116.729 54.8769ZM51.3268 30.9414L51.9747 31.2066L52.6562 29.5414L51.0285 30.3082L51.3268 30.9414ZM48.2167 31.7894L48.1509 31.0925L48.1509 31.0925L48.2167 31.7894ZM44.9493 32.0981L44.8834 31.4012L44.1865 31.467L44.2524 32.1639L44.9493 32.0981ZM47.6786 60.9914L48.3755 60.9256L48.3755 60.9256L47.6786 60.9914ZM39.1052 71.3537L39.171 72.0506L39.171 72.0506L39.1052 71.3537ZM28.5442 72.3513L28.4783 71.6544L28.4783 71.6544L28.5442 72.3513ZM18.2596 63.7705L18.9565 63.7046L18.9565 63.7046L18.2596 63.7705ZM15.5302 34.8771L16.2271 34.8113L16.1613 34.1144L15.4644 34.1802L15.5302 34.8771ZM12.2628 35.1858L12.197 34.4889L12.197 34.4889L12.2628 35.1858ZM1.90057 26.6123L1.20367 26.6781L1.20367 26.6781L1.90057 26.6123ZM1.04231 17.5267L1.73921 17.4609L1.04231 17.5267ZM9.62313 7.24215L9.68896 7.93905L9.62313 7.24215ZM45.5771 3.84581L45.6429 4.5427L45.6429 4.5427L45.5771 3.84581ZM55.8543 12.349L55.1574 12.4148L55.1574 12.4148L55.8543 12.349ZM56.7126 21.4345L57.4095 21.3687L57.4095 21.3687L56.7126 21.4345ZM56.7499 22.0186L56.0503 22.0419L56.1106 23.8517L57.2833 22.4719L56.7499 22.0186ZM112.352 24.6468L111.776 25.0445L112.592 26.2257L113.02 24.8558L112.352 24.6468ZM175.761 17.8719L175.155 18.2225L176.461 20.4788V17.8719H175.761ZM205.233 45.532H204.533V46.232H205.233V45.532ZM221.4 47.1078L221.011 47.6897L222.023 48.3663L222.099 47.1514L221.4 47.1078ZM223.3 16.6789L222.601 16.6353L222.601 16.6353L223.3 16.6789ZM233.379 7.85799L233.336 8.55662L233.336 8.55662L233.379 7.85799ZM246.38 8.66982L246.424 7.97118L246.424 7.97118L246.38 8.66982ZM254.878 14.4125L254.243 14.7079L254.249 14.7198L254.878 14.4125ZM260.899 26.7393L260.27 27.0466L260.809 28.1498L261.484 27.1241L260.899 26.7393ZM268.456 15.2523L269.041 15.6371L269.045 15.631L269.049 15.6248L268.456 15.2523ZM277.597 10.6192L277.554 11.3178L277.554 11.3178L277.597 10.6192ZM290.598 11.431L290.554 12.1297L290.554 12.1297L290.598 11.431ZM299.424 21.4325L298.725 21.3889L298.725 21.3889L299.424 21.4325ZM298.727 32.5836L298.029 32.5399L299.408 32.7464L298.727 32.5836ZM303.646 12.0228L302.972 11.8316L302.968 11.8457L302.965 11.8599L303.646 12.0228ZM303.68 11.9023L304.353 12.0935L304.353 12.0934L303.68 11.9023ZM312.645 4.41864L312.584 3.72131L312.584 3.72131L312.645 4.41864ZM327.875 3.08347L327.814 2.38614L327.814 2.38614L327.875 3.08347ZM338.111 9.12048L337.468 9.39918L337.468 9.39931L338.111 9.12048ZM358.113 55.1829L357.471 55.4617L357.971 56.6119L358.688 55.5831L358.113 55.1829ZM365.804 44.1456L366.379 44.5458L366.623 44.1955L366.423 43.8181L365.804 44.1456ZM354.64 23.0622L354.021 23.3897L354.022 23.3898L354.64 23.0622ZM362.3 11.1846L362.344 10.4859L362.344 10.4859L362.3 11.1846ZM375.379 11.9925L375.423 11.2939L375.423 11.2939L375.379 11.9925ZM383.74 17.3663L384.355 17.0326L384.355 17.0326L383.74 17.3663ZM383.781 17.4411L384.405 17.125L384.401 17.1162L384.396 17.1075L383.781 17.4411ZM385.117 20.0821L384.493 20.3982L385.032 21.4636L385.698 20.4726L385.117 20.0821ZM386.699 17.7294L387.28 18.12L387.284 18.1135L386.699 17.7294ZM395.777 13.2526L395.82 12.5539L395.82 12.5539L395.777 13.2526ZM408.856 14.0606L408.899 13.3619L408.899 13.3619L408.856 14.0606ZM414.996 26.7901L415.569 27.1922L415.57 27.1913L414.996 26.7901ZM401.326 46.272L400.753 45.8699L400.507 46.2195L400.706 46.5976L401.326 46.272ZM413.11 68.7002L412.491 69.0258L412.491 69.0273L413.11 68.7002ZM381.975 70.4945L382.601 70.1807L382.064 69.11L381.395 70.1034L381.975 70.4945ZM383.886 74.306L383.261 74.6198L383.266 74.6298L383.271 74.6396L383.886 74.306ZM383.932 74.3906L383.317 74.7242L383.317 74.7243L383.932 74.3906ZM392.371 79.7692L392.328 80.4678L392.328 80.4678L392.371 79.7692ZM405.45 80.5772L405.493 79.8785L405.493 79.8785L405.45 80.5772ZM394.312 45.8222L393.739 45.4202L393.493 45.7698L393.692 46.1478L394.312 45.8222ZM410.079 23.3517L410.652 23.7538L410.653 23.7529L410.079 23.3517ZM408.486 20.0492L408.529 19.3505L408.486 20.0492ZM395.407 19.2412L395.45 18.5425L395.45 18.5425L395.407 19.2412ZM391.7 21.0441L392.281 21.4347L392.288 21.4242L391.7 21.0441ZM384.386 31.9238L383.761 32.2399L384.3 33.3053L384.967 32.3143L384.386 31.9238ZM378.466 20.2265L379.09 19.9104L379.086 19.9015L379.081 19.8928L378.466 20.2265ZM375.009 17.9811L374.966 18.6798L374.966 18.6798L375.009 17.9811ZM361.93 17.1731L361.974 16.4745L361.974 16.4745L361.93 17.1731ZM359.943 20.2544L359.324 20.5819L359.324 20.582L359.943 20.2544ZM372.82 44.5727L373.394 44.9729L373.638 44.6225L373.438 44.2451L372.82 44.5727ZM356.27 68.3234L356.843 68.7246L356.844 68.7236L356.27 68.3234ZM357.863 71.626L357.906 70.9273L357.906 70.9273L357.863 71.626ZM370.942 72.434L370.899 73.1326L370.899 73.1326L370.942 72.434ZM374.648 70.631L374.068 70.2399L374.061 70.2509L374.648 70.631ZM379.649 73.9478L379.068 73.5566L379.063 73.5635L379.649 73.9478ZM370.572 78.4225L370.529 79.1212L370.529 79.1212L370.572 78.4225ZM357.493 77.6146L357.536 76.9159L357.536 76.9159L357.493 77.6146ZM350.021 67.9974L350.708 68.1305L350.885 67.219L349.96 67.3001L350.021 67.9974ZM338.742 68.9862L338.803 69.6835L338.803 69.6835L338.742 68.9862ZM329.078 62.9573L329.728 62.6984L329.728 62.6983L329.078 62.9573ZM329.057 62.9059L328.402 63.1528L328.407 63.1649L329.057 62.9059ZM328.5 61.4278L329.155 61.1809L328.968 60.6841L328.439 60.7305L328.5 61.4278ZM322.182 61.9817L322.121 61.2844L321.592 61.3308L321.494 61.8526L322.182 61.9817ZM321.912 63.4179L321.224 63.2888L321.222 63.3007L321.912 63.4179ZM313.411 71.207L313.472 71.9043L313.472 71.9043L313.411 71.207ZM301.134 72.2833L301.073 71.5859L301.073 71.5859L301.134 72.2833ZM273.511 18.4858L274.096 18.8705L274.102 18.861L274.108 18.8513L273.511 18.4858ZM260.127 38.8292L259.498 39.1365L260.037 40.2397L260.712 39.214L260.127 38.8292ZM249.456 16.9837L248.818 17.272L248.822 17.2815L248.827 17.2909L249.456 16.9837ZM246.006 14.6582L245.963 15.3568L245.963 15.3568L246.006 14.6582ZM233.005 13.8463L232.962 14.545L233.005 13.8463ZM229.288 17.0529L229.987 17.0965L229.987 17.0965L229.288 17.0529ZM226.318 64.6182L227.017 64.6619L227.017 64.6619L226.318 64.6182ZM229.603 68.3402L229.559 69.0388L229.559 69.0388L229.603 68.3402ZM240.112 68.9964L240.156 68.2978L240.156 68.2978L240.112 68.9964ZM243.834 65.712L244.533 65.7557L244.533 65.7557L243.834 65.712ZM245.404 40.567L246.031 40.2545L244.868 37.9239L244.706 40.5234L245.404 40.567ZM255.545 60.8945L256.179 60.5983L256.175 60.5901L256.171 60.5821L255.545 60.8945ZM257.793 62.4417L257.837 61.743L257.837 61.743L257.793 62.4417ZM259.506 62.5486L259.549 61.85L259.549 61.85L259.506 62.5486ZM262.006 61.298L261.424 60.91L261.419 60.9175L261.414 60.9252L262.006 61.298ZM274.597 42.39L275.296 42.4336L275.458 39.8341L274.015 42.002L274.597 42.39ZM273.027 67.535L272.329 67.4914L272.329 67.4914L273.027 67.535ZM276.234 71.2521L276.277 70.5534L276.277 70.5534L276.234 71.2521ZM286.821 71.9132L286.778 72.6119L286.778 72.6119L286.821 71.9132ZM290.465 68.6239L289.767 68.5803L289.767 68.5803L290.465 68.6239ZM293.435 21.0586L294.134 21.1022L294.134 21.1022L293.435 21.0586ZM290.224 17.4194L290.268 16.7207L290.268 16.7207L290.224 17.4194ZM277.223 16.6075L277.267 15.9089L277.267 15.9089L277.223 16.6075ZM319.403 43.9877L318.715 43.8612L318.548 44.7653L319.464 44.685L319.403 43.9877ZM322.371 27.8327L323.027 27.5883L322.142 25.2105L321.683 27.7062L322.371 27.8327ZM328.106 43.2247L328.167 43.922L329.083 43.8418L328.762 42.9803L328.106 43.2247ZM199.233 51.532H198.533V52.232H199.233V51.532ZM46.1412 9.81921L46.2071 10.5161L46.1412 9.81921ZM10.1873 13.2156L10.1215 12.5187L10.1873 13.2156ZM7.01561 16.9624L7.71251 16.8966L7.71251 16.8966L7.01561 16.9624ZM7.87386 26.048L7.17697 26.1138L7.87386 26.048ZM11.6984 29.2123L11.6326 28.5154L11.6326 28.5154L11.6984 29.2123ZM20.9393 28.3394L21.6362 28.2736L21.5703 27.5767L20.8734 27.6425L20.9393 28.3394ZM24.2329 63.2062L23.536 63.272L24.2329 63.2062ZM27.9798 66.3779L27.914 65.681L27.914 65.681L27.9798 66.3779ZM38.5408 65.3802L38.6066 66.0771L38.6066 66.0771L38.5408 65.3802ZM41.7051 61.5557L42.402 61.4899L42.402 61.4899L41.7051 61.5557ZM38.4115 26.6889L38.3457 25.992L37.6488 26.0579L37.7146 26.7548L38.4115 26.6889ZM47.6523 25.816L47.5865 25.1191L47.5865 25.1191L47.6523 25.816ZM50.739 21.9988L51.4359 21.933L51.4359 21.933L50.739 21.9988ZM49.8808 12.9132L49.1839 12.9791L49.1839 12.9791L49.8808 12.9132ZM407.807 71.5073L407.188 71.8329L407.189 71.8348L407.807 71.5073ZM382.736 58.6269L383.362 58.3131L382.825 57.2423L382.155 58.2358L382.736 58.6269ZM389.207 71.5304L388.581 71.8442L388.586 71.8542L388.591 71.8641L389.207 71.5304ZM392.741 73.7806L392.784 73.0819L392.784 73.0819L392.741 73.7806ZM405.82 74.5886L405.776 75.2872L405.776 75.2872L405.82 74.5886ZM328.46 9.75787C329.957 9.62667 331.402 10.4899 331.965 11.7889L333.249 11.2319C332.439 9.36277 330.416 8.18105 328.338 8.36322L328.46 9.75787ZM331.965 11.7892L352.175 58.328L353.459 57.7704L333.249 11.2316L331.965 11.7892ZM352.178 58.336C352.762 59.6359 351.89 61.1079 350.512 61.2287L350.634 62.6233C352.986 62.4172 354.428 59.9278 353.455 57.7624L352.178 58.336ZM350.512 61.2287L338.157 62.3118L338.279 63.7065L350.634 62.6233L350.512 61.2287ZM338.157 62.3118C336.927 62.4196 335.797 61.7207 335.303 60.479L334.002 60.9968C334.712 62.7815 336.401 63.8711 338.279 63.7065L338.157 62.3118ZM335.307 60.491L333.165 54.8064L331.855 55.3002L333.997 60.9848L335.307 60.491ZM332.448 54.356L317.063 55.7048L317.186 57.0994L332.571 55.7506L332.448 54.356ZM316.437 56.2729L315.316 62.2436L316.692 62.5019L317.813 56.5312L316.437 56.2729ZM315.312 62.263C315.114 63.5144 314.08 64.4226 312.826 64.5325L312.948 65.9272C314.802 65.7647 316.389 64.4074 316.695 62.4826L315.312 62.263ZM312.826 64.5325L300.549 65.6089L300.672 67.0035L312.948 65.9272L312.826 64.5325ZM300.549 65.6089C299.141 65.7323 297.986 64.4099 298.327 63.0572L296.97 62.7145C296.381 65.045 298.35 67.2071 300.672 67.0035L300.549 65.6089ZM298.329 63.0487L310.133 13.7032L308.771 13.3776L296.968 62.723L298.329 63.0487ZM310.125 13.7315C310.531 12.3031 311.755 11.2224 313.231 11.093L313.108 9.69839C311.01 9.88234 309.33 11.4052 308.778 13.3493L310.125 13.7315ZM286.404 78.6002C291.376 78.9107 295.435 75.6982 296.734 71.3794L295.393 70.9761C294.268 74.716 290.77 77.4701 286.491 77.2029L286.404 78.6002ZM275.816 77.9391L286.404 78.6002L286.491 77.2029L275.903 76.5418L275.816 77.9391ZM266.34 67.1174C265.994 72.6566 270.155 77.5856 275.816 77.9391L275.903 76.5418C271.039 76.238 267.438 71.9966 267.737 67.2047L266.34 67.1174ZM266.519 64.2539L266.34 67.1174L267.737 67.2047L267.916 64.3411L266.519 64.2539ZM267.614 64.9654L267.8 64.6854L266.635 63.9095L266.449 64.1895L267.614 64.9654ZM259.088 69.2356C262.417 69.4435 265.732 67.8813 267.619 64.957L266.443 64.1978C264.842 66.6793 262.02 68.0159 259.175 67.8383L259.088 69.2356ZM257.375 69.1286L259.088 69.2356L259.175 67.8383L257.463 67.7314L257.375 69.1286ZM249.521 63.8276C250.985 66.8694 254.017 68.9189 257.375 69.1286L257.463 67.7314C254.614 67.5534 252.028 65.809 250.782 63.2204L249.521 63.8276ZM249.375 63.5349L249.525 63.8365L250.778 63.2116L250.628 62.91L249.375 63.5349ZM250.521 66.1296L250.7 63.2661L249.303 63.1788L249.124 66.0423L250.521 66.1296ZM239.695 75.6834C245.334 76.0356 250.169 71.7689 250.521 66.1296L249.124 66.0423C248.82 70.91 244.649 74.5901 239.782 74.2861L239.695 75.6834ZM229.185 75.0272L239.695 75.6834L239.782 74.2861L229.272 73.6299L229.185 75.0272ZM222.084 71.5077C223.814 73.5148 226.324 74.8485 229.185 75.0272L229.272 73.6299C226.801 73.4755 224.637 72.3256 223.144 70.5935L222.084 71.5077ZM216.159 74.3C218.905 74.3 221.316 73.2462 223.096 71.5585L222.132 70.5427C220.604 71.9924 218.534 72.9 216.159 72.9V74.3ZM185.193 74.3H216.159V72.9H185.193V74.3ZM175.061 64.09C175.061 69.64 179.521 74.3 185.193 74.3V72.9C180.319 72.9 176.461 68.8913 176.461 64.09H175.061ZM175.061 52.654V64.09H176.461V52.654H175.061ZM145.543 70.25C158.923 70.25 170.312 63.4906 176.367 53.004L175.155 52.3039C169.357 62.3453 158.437 68.85 145.543 68.85V70.25ZM116.152 55.2738C122.475 64.457 133.157 70.25 145.543 70.25V68.85C133.605 68.85 123.36 63.2737 117.305 54.4799L116.152 55.2738ZM83.5431 79.25C99.6813 79.25 112.919 69.4156 117.397 55.0857L116.061 54.6681C111.771 68.3946 99.089 77.85 83.5431 77.85V79.25ZM48.0611 44.236C48.0611 64.191 63.5724 79.25 83.5431 79.25V77.85C64.3216 77.85 49.4611 63.394 49.4611 44.236H48.0611ZM50.679 30.6763C48.9862 34.8124 48.0611 39.3827 48.0611 44.236H49.4611C49.4611 39.5622 50.3517 35.1721 51.9747 31.2066L50.679 30.6763ZM48.2826 32.4863C49.4777 32.3734 50.6016 32.0569 51.6252 31.5747L51.0285 30.3082C50.1495 30.7223 49.1828 30.995 48.1509 31.0925L48.2826 32.4863ZM45.0151 32.795L48.2826 32.4863L48.1509 31.0925L44.8834 31.4012L45.0151 32.795ZM48.3755 60.9256L45.6462 32.0322L44.2524 32.1639L46.9818 61.0573L48.3755 60.9256ZM39.171 72.0506C44.7963 71.5192 48.9069 66.5509 48.3755 60.9256L46.9818 61.0573C47.4404 65.9128 43.8948 70.1981 39.0393 70.6568L39.171 72.0506ZM28.61 73.0482L39.171 72.0506L39.0393 70.6568L28.4783 71.6544L28.61 73.0482ZM17.5627 63.8363C18.0847 69.3617 22.9634 73.5816 28.61 73.0482L28.4783 71.6544C23.6256 72.1128 19.4081 68.4847 18.9565 63.7046L17.5627 63.8363ZM14.8333 34.9429L17.5627 63.8363L18.9565 63.7046L16.2271 34.8113L14.8333 34.9429ZM12.3286 35.8827L15.5961 35.574L15.4644 34.1802L12.197 34.4889L12.3286 35.8827ZM1.20367 26.6781C1.73505 32.3034 6.70335 36.414 12.3286 35.8827L12.197 34.4889C7.34146 34.9475 3.05613 31.4019 2.59746 26.5464L1.20367 26.6781ZM0.345414 17.5925L1.20367 26.6781L2.59746 26.5464L1.73921 17.4609L0.345414 17.5925ZM9.5573 6.54525C4.03187 7.0672 -0.187991 11.9459 0.345414 17.5925L1.73921 17.4609C1.2808 12.6082 4.90892 8.39059 9.68896 7.93905L9.5573 6.54525ZM45.5112 3.14891L9.5573 6.54525L9.68896 7.93905L45.6429 4.5427L45.5112 3.14891ZM56.5512 12.2831C56.0272 6.73553 51.0588 2.62486 45.5112 3.14891L45.6429 4.5427C50.4207 4.09137 54.7061 7.63696 55.1574 12.4148L56.5512 12.2831ZM57.4095 21.3687L56.5512 12.2831L55.1574 12.4148L56.0157 21.5004L57.4095 21.3687ZM57.4495 21.9952C57.4425 21.7872 57.4292 21.5782 57.4095 21.3687L56.0157 21.5003C56.0328 21.6816 56.0443 21.8622 56.0503 22.0419L57.4495 21.9952ZM83.5431 9.3C72.423 9.3 62.6707 13.9707 56.2165 21.5653L57.2833 22.4719C63.4652 15.1976 72.824 10.7 83.5431 10.7V9.3ZM112.928 24.2491C106.603 15.0873 95.9212 9.3 83.5431 9.3V10.7C95.4732 10.7 105.719 16.2711 111.776 25.0445L112.928 24.2491ZM145.543 0.3C129.407 0.3 116.159 10.1356 111.684 24.4378L113.02 24.8558C117.307 11.1575 129.998 1.7 145.543 1.7V0.3ZM176.367 17.5213C170.31 7.05609 158.917 0.3 145.543 0.3V1.7C158.431 1.7 169.356 8.20192 175.155 18.2225L176.367 17.5213ZM175.061 16.432V17.8719H176.461V16.432H175.061ZM185.193 6.3C179.621 6.3 175.061 10.8597 175.061 16.432H176.461C176.461 11.6329 180.394 7.7 185.193 7.7V6.3ZM195.801 6.3H185.193V7.7H195.801V6.3ZM205.933 16.432C205.933 10.9616 201.552 6.3 195.801 6.3V7.7C200.755 7.7 204.533 11.7099 204.533 16.432H205.933ZM205.933 45.532V16.432H204.533V45.532H205.933ZM216.159 44.832H205.233V46.232H216.159V44.832ZM221.789 46.5259C220.194 45.4591 218.265 44.832 216.159 44.832V46.232C217.982 46.232 219.64 46.7733 221.011 47.6897L221.789 46.5259ZM222.601 16.6353L220.701 47.0641L222.099 47.1514L223.999 16.7226L222.601 16.6353ZM233.423 7.15935C227.884 6.81345 222.955 10.9746 222.601 16.6353L223.999 16.7226C224.302 11.8577 228.544 8.25739 233.336 8.55662L233.423 7.15935ZM246.424 7.97118L233.423 7.15935L233.336 8.55662L246.336 9.36846L246.424 7.97118ZM255.512 14.1172C253.776 10.386 250.155 8.20419 246.424 7.97118L246.336 9.36846C249.597 9.57206 252.74 11.4779 254.243 14.7078L255.512 14.1172ZM261.528 26.4321L255.506 14.1053L254.249 14.7198L260.27 27.0466L261.528 26.4321ZM267.872 14.8676L260.314 26.3546L261.484 27.1241L269.041 15.6371L267.872 14.8676ZM277.641 9.92055C273.912 9.68772 270.051 11.3991 267.864 14.8799L269.049 15.6248C270.943 12.6118 274.296 11.1144 277.554 11.3178L277.641 9.92055ZM290.642 10.7324L277.641 9.92055L277.554 11.3178L290.554 12.1297L290.642 10.7324ZM300.122 21.4762C300.463 16.0164 296.382 11.0908 290.642 10.7324L290.554 12.1297C295.498 12.4384 299.019 16.676 298.725 21.3889L300.122 21.4762ZM299.426 32.6272L300.122 21.4762L298.725 21.3889L298.029 32.5399L299.426 32.6272ZM303.006 11.7111L302.972 11.8316L304.319 12.214L304.353 12.0935L303.006 11.7111ZM312.584 3.72131C307.818 4.13918 304.185 7.55885 303.006 11.7112L304.353 12.0934C305.386 8.45278 308.566 5.47894 312.707 5.11596L312.584 3.72131ZM327.814 2.38614L312.584 3.72131L312.707 5.11596L327.936 3.78079L327.814 2.38614ZM338.753 8.84179C336.881 4.53018 332.381 1.98573 327.814 2.38614L327.936 3.78079C331.924 3.43117 335.845 5.65919 337.468 9.39918L338.753 8.84179ZM365.23 43.7454L357.539 54.7827L358.688 55.5831L366.379 44.5458L365.23 43.7454ZM354.022 23.3898L365.186 44.4732L366.423 43.8181L355.259 22.7347L354.022 23.3898ZM362.344 10.4859C355.511 10.0638 350.792 17.2896 354.021 23.3897L355.259 22.7347C352.545 17.6073 356.508 11.5281 362.257 11.8832L362.344 10.4859ZM375.423 11.2939L362.344 10.4859L362.257 11.8832L375.336 12.6912L375.423 11.2939ZM384.355 17.0326C382.617 13.8274 379.34 11.5359 375.423 11.2939L375.336 12.6912C378.742 12.9016 381.602 14.8928 383.125 17.7L384.355 17.0326ZM384.396 17.1075L384.355 17.0326L383.125 17.6999L383.165 17.7748L384.396 17.1075ZM386.118 17.3388L384.536 19.6915L385.698 20.4726L387.28 18.12L386.118 17.3388ZM395.82 12.5539C392.124 12.3256 388.306 14.0054 386.114 17.3452L387.284 18.1135C389.18 15.2251 392.501 13.7516 395.733 13.9513L395.82 12.5539ZM408.899 13.3619L395.82 12.5539L395.733 13.9513L408.812 14.7593L408.899 13.3619ZM415.57 27.1913C419.525 21.5349 415.731 13.784 408.899 13.3619L408.812 14.7593C414.561 15.1144 417.747 21.6347 414.422 26.389L415.57 27.1913ZM413.73 68.3746L401.945 45.9464L400.706 46.5976L412.491 69.0258L413.73 68.3746ZM413.739 68.3914C413.735 68.3842 413.731 68.3772 413.729 68.3722L412.492 69.0282C412.495 69.034 412.497 69.0378 412.499 69.0415L413.739 68.3914ZM383.271 74.6396L383.317 74.7242L384.548 74.057L384.502 73.9724L383.271 74.6396ZM383.317 74.7243C385.121 78.0515 388.546 80.2342 392.328 80.4678L392.414 79.0705C389.113 78.8666 386.122 76.9592 384.548 74.0569L383.317 74.7243ZM392.328 80.4678L405.407 81.2758L405.493 79.8785L392.414 79.0705L392.328 80.4678ZM405.407 81.2758C412.233 81.6975 416.949 74.4867 413.738 68.3902L412.5 69.0426C415.198 74.1666 411.236 80.2333 405.493 79.8785L405.407 81.2758ZM394.885 46.2243L410.652 23.7538L409.506 22.9496L393.739 45.4202L394.885 46.2243ZM410.653 23.7529C411.91 21.9545 410.707 19.4851 408.529 19.3505L408.443 20.7478C409.534 20.8153 410.134 22.0521 409.505 22.9506L410.653 23.7529ZM408.529 19.3505L395.45 18.5425L395.363 19.9399L408.443 20.7478L408.529 19.3505ZM395.45 18.5425C393.737 18.4367 392.037 19.2342 391.113 20.664L392.288 21.4242C392.919 20.4493 394.118 19.8629 395.363 19.9399L395.45 18.5425ZM379.081 19.8928C378.271 18.3993 376.786 17.3896 375.053 17.2825L374.966 18.6798C376.191 18.7554 377.257 19.4663 377.85 20.5602L379.081 19.8928ZM375.053 17.2825L361.974 16.4745L361.887 17.8718L374.966 18.6798L375.053 17.2825ZM361.974 16.4745C359.796 16.3399 358.297 18.6424 359.324 20.5819L360.561 19.9269C360.048 18.958 360.796 17.8044 361.887 17.8718L361.974 16.4745ZM359.324 20.582L372.201 44.9003L373.438 44.2451L360.561 19.9269L359.324 20.582ZM355.696 67.9223C354.439 69.7207 355.642 72.1901 357.82 72.3246L357.906 70.9273C356.815 70.8599 356.215 69.623 356.843 68.7246L355.696 67.9223ZM357.82 72.3246L370.899 73.1326L370.985 71.7353L357.906 70.9273L357.82 72.3246ZM370.899 73.1326C372.612 73.2385 374.312 72.4409 375.236 71.0112L374.061 70.2509C373.43 71.2258 372.231 71.8122 370.985 71.7353L370.899 73.1326ZM380.229 74.3389L382.556 70.8856L381.395 70.1034L379.068 73.5567L380.229 74.3389ZM370.529 79.1212C374.224 79.3494 378.041 77.6705 380.234 74.3321L379.063 73.5635C377.167 76.4507 373.847 77.9235 370.615 77.7239L370.529 79.1212ZM357.45 78.3132L370.529 79.1212L370.615 77.7239L357.536 76.9159L357.45 78.3132ZM349.334 67.8642C348.375 72.813 351.907 77.9708 357.45 78.3132L357.536 76.9159C352.885 76.6285 349.901 72.2977 350.708 68.1305L349.334 67.8642ZM338.803 69.6835L350.082 68.6947L349.96 67.3001L338.681 68.2889L338.803 69.6835ZM328.427 63.2162C330.064 67.326 334.142 70.0922 338.803 69.6835L338.681 68.2889C334.672 68.6403 331.15 66.2688 329.728 62.6984L328.427 63.2162ZM328.407 63.1649L328.427 63.2163L329.728 62.6983L329.708 62.6468L328.407 63.1649ZM322.243 62.6791L328.561 62.1251L328.439 60.7305L322.121 61.2844L322.243 62.6791ZM322.6 63.5471L322.87 62.1109L321.494 61.8526L321.224 63.2888L322.6 63.5471ZM313.472 71.9043C317.861 71.5196 321.795 68.2875 322.602 63.5352L321.222 63.3007C320.528 67.3825 317.148 70.1767 313.35 70.5096L313.472 71.9043ZM301.196 72.9806L313.472 71.9043L313.35 70.5096L301.073 71.5859L301.196 72.9806ZM295.719 71.7875C297.331 72.6963 299.223 73.1535 301.196 72.9806L301.073 71.5859C299.396 71.733 297.785 71.3452 296.407 70.5681L295.719 71.7875ZM250.094 16.6954C249.361 15.0745 247.768 14.0668 246.05 13.9595L245.963 15.3568C247.202 15.4342 248.315 16.1585 248.818 17.272L250.094 16.6954ZM246.05 13.9595L233.049 13.1477L232.962 14.545L245.963 15.3568L246.05 13.9595ZM233.049 13.1477C230.727 13.0027 228.731 14.7449 228.59 17.0093L229.987 17.0965C230.079 15.6242 231.391 14.4469 232.962 14.545L233.049 13.1477ZM228.59 17.0093L225.62 64.5746L227.017 64.6619L229.987 17.0965L228.59 17.0093ZM225.62 64.5746C225.474 66.9067 227.227 68.8932 229.559 69.0388L229.646 67.6415C228.086 67.5441 226.919 66.2222 227.017 64.6619L225.62 64.5746ZM229.559 69.0388L240.068 69.6951L240.156 68.2978L229.646 67.6415L229.559 69.0388ZM240.068 69.6951C242.401 69.8407 244.387 68.0877 244.533 65.7557L243.135 65.6684C243.038 67.2288 241.716 68.3952 240.156 68.2978L240.068 69.6951ZM254.911 61.1908C255.432 62.3072 256.558 63.0659 257.749 63.1403L257.837 61.743C257.159 61.7007 256.485 61.2529 256.179 60.5983L254.911 61.1908ZM257.749 63.1403L259.462 63.2472L259.549 61.85L257.837 61.743L257.749 63.1403ZM259.462 63.2472C260.72 63.3258 261.937 62.7231 262.599 61.6709L261.414 60.9252C261.035 61.5273 260.316 61.8978 259.549 61.85L259.462 63.2472ZM272.329 67.4914C272.184 69.8132 273.926 71.8093 276.19 71.9507L276.277 70.5534C274.805 70.4615 273.628 69.1493 273.726 67.5786L272.329 67.4914ZM276.19 71.9507L286.778 72.6119L286.865 71.2146L276.277 70.5534L276.19 71.9507ZM286.778 72.6119C289.13 72.7588 291.02 70.9789 291.164 68.6676L289.767 68.5803C289.668 70.1614 288.405 71.3107 286.865 71.2146L286.778 72.6119ZM291.164 68.6676L294.134 21.1022L292.737 21.015L289.767 68.5803L291.164 68.6676ZM294.134 21.1022C294.274 18.8584 292.61 16.867 290.268 16.7207L290.18 18.118C291.73 18.2148 292.83 19.522 292.737 21.015L294.134 21.1022ZM290.268 16.7207L277.267 15.9089L277.18 17.3062L290.18 18.118L290.268 16.7207ZM277.267 15.9089C275.549 15.8016 273.843 16.6033 272.914 18.1204L274.108 18.8513C274.746 17.809 275.94 17.2287 277.18 17.3062L277.267 15.9089ZM83.5431 48.768C82.079 48.768 80.9629 48.3221 80.2145 47.5783C79.4669 46.8353 79.0111 45.7205 79.0111 44.236H77.6111C77.6111 46.0125 78.1633 47.5136 79.2277 48.5714C80.2914 49.6284 81.7913 50.168 83.5431 50.168V48.768ZM88.0751 44.236C88.0751 45.7205 87.6193 46.8353 86.8716 47.5783C86.1232 48.3221 85.0072 48.768 83.5431 48.768V50.168C85.2949 50.168 86.7948 49.6284 87.8585 48.5714C88.9228 47.5136 89.4751 46.0125 89.4751 44.236H88.0751ZM83.5431 39.704C84.9871 39.704 86.1051 40.1588 86.8604 40.9117C87.6153 41.6643 88.0751 42.7818 88.0751 44.236H89.4751C89.4751 42.4796 88.9129 40.981 87.8488 39.9203C86.785 38.8598 85.2871 38.304 83.5431 38.304V39.704ZM79.0111 44.236C79.0111 42.7818 79.4709 41.6643 80.2258 40.9117C80.981 40.1588 82.0991 39.704 83.5431 39.704V38.304C81.7991 38.304 80.3011 38.8598 79.2374 39.9203C78.1733 40.981 77.6111 42.4796 77.6111 44.236H79.0111ZM145.543 39.768C144.079 39.768 142.963 39.3221 142.215 38.5783C141.467 37.8353 141.011 36.7205 141.011 35.236H139.611C139.611 37.0125 140.163 38.5136 141.228 39.5714C142.291 40.6284 143.791 41.168 145.543 41.168V39.768ZM150.075 35.236C150.075 36.7205 149.619 37.8353 148.872 38.5783C148.123 39.3221 147.007 39.768 145.543 39.768V41.168C147.295 41.168 148.795 40.6284 149.858 39.5714C150.923 38.5136 151.475 37.0125 151.475 35.236H150.075ZM145.543 30.704C146.987 30.704 148.105 31.1588 148.86 31.9117C149.615 32.6643 150.075 33.7818 150.075 35.236H151.475C151.475 33.4796 150.913 31.981 149.849 30.9203C148.785 29.8598 147.287 29.304 145.543 29.304V30.704ZM141.011 35.236C141.011 33.7818 141.471 32.6643 142.226 31.9118C142.981 31.1588 144.099 30.704 145.543 30.704V29.304C143.799 29.304 142.301 29.8598 141.237 30.9203C140.173 31.981 139.611 33.4796 139.611 35.236H141.011ZM195.801 13.7C197.354 13.7 198.533 14.9362 198.533 16.432H199.933C199.933 14.1838 198.148 12.3 195.801 12.3V13.7ZM185.193 13.7H195.801V12.3H185.193V13.7ZM182.461 16.432C182.461 14.9466 183.708 13.7 185.193 13.7V12.3C182.934 12.3 181.061 14.1734 181.061 16.432H182.461ZM182.461 64.09V16.432H181.061V64.09H182.461ZM185.193 66.9C183.718 66.9 182.461 65.6637 182.461 64.09H181.061C181.061 66.4163 182.924 68.3 185.193 68.3V66.9ZM216.159 66.9H185.193V68.3H216.159V66.9ZM218.891 64.09C218.891 65.6742 217.702 66.9 216.159 66.9V68.3C218.516 68.3 220.291 66.4058 220.291 64.09H218.891ZM218.891 54.964V64.09H220.291V54.964H218.891ZM216.159 52.232C217.712 52.232 218.891 53.4682 218.891 54.964H220.291C220.291 52.7158 218.506 50.832 216.159 50.832V52.232ZM313.231 11.093L328.46 9.75787L328.338 8.36322L313.108 9.69839L313.231 11.093ZM302.965 11.8599L298.047 32.4207L299.408 32.7464L304.326 12.1856L302.965 11.8599ZM385.742 19.766L384.405 17.125L383.156 17.7572L384.493 20.3982L385.742 19.766ZM401.899 46.6741L415.569 27.1922L414.423 26.388L400.753 45.8699L401.899 46.6741ZM381.349 70.8083L383.261 74.6198L384.512 73.9922L382.601 70.1807L381.349 70.8083ZM391.119 20.6535L383.805 31.5332L384.967 32.3143L392.281 21.4347L391.119 20.6535ZM385.01 31.6077L379.09 19.9104L377.841 20.5426L383.761 32.2399L385.01 31.6077ZM327.845 61.6747L328.402 63.1528L329.712 62.659L329.155 61.1809L327.845 61.6747ZM272.926 18.1011L259.542 38.4445L260.712 39.214L274.096 18.8705L272.926 18.1011ZM260.756 38.522L250.085 16.6764L248.827 17.2909L259.498 39.1365L260.756 38.522ZM244.533 65.7557L246.103 40.6106L244.706 40.5234L243.135 65.6684L244.533 65.7557ZM244.778 40.8795L254.919 61.207L256.171 60.5821L246.031 40.2545L244.778 40.8795ZM262.589 61.686L275.18 42.778L274.015 42.002L261.424 60.91L262.589 61.686ZM273.899 42.3464L272.329 67.4914L273.726 67.5786L275.296 42.4336L273.899 42.3464ZM319.464 44.685L328.167 43.922L328.045 42.5274L319.342 43.2903L319.464 44.685ZM321.683 27.7062L318.715 43.8612L320.092 44.1142L323.06 27.9592L321.683 27.7062ZM328.762 42.9803L323.027 27.5883L321.716 28.0771L327.45 43.4691L328.762 42.9803ZM198.533 16.432V51.532H199.933V16.432H198.533ZM199.233 52.232H216.159V50.832H199.233V52.232ZM413.738 68.3894L413.729 68.3731L412.491 69.0273L412.5 69.0435L413.738 68.3894ZM46.0754 9.12232L10.1215 12.5187L10.2531 13.9125L46.2071 10.5161L46.0754 9.12232ZM10.1215 12.5187C7.80544 12.7374 6.10534 14.7695 6.31871 17.0283L7.71251 16.8966C7.57377 15.4279 8.68642 14.0604 10.2531 13.9125L10.1215 12.5187ZM6.31871 17.0283L7.17697 26.1138L8.57076 25.9822L7.71251 16.8966L6.31871 17.0283ZM7.17697 26.1138C7.39671 28.4401 9.43799 30.129 11.7642 29.9092L11.6326 28.5154C10.0761 28.6625 8.71779 27.5386 8.57076 25.9822L7.17697 26.1138ZM11.7642 29.9092L21.0051 29.0363L20.8734 27.6425L11.6326 28.5154L11.7642 29.9092ZM20.2424 28.4052L23.536 63.272L24.9298 63.1404L21.6362 28.2736L20.2424 28.4052ZM23.536 63.272C23.7548 65.588 25.7869 67.2881 28.0456 67.0748L27.914 65.681C26.4453 65.8197 25.0778 64.7071 24.9298 63.1404L23.536 63.272ZM28.0456 67.0748L38.6066 66.0771L38.475 64.6834L27.914 65.681L28.0456 67.0748ZM38.6066 66.0771C40.9329 65.8574 42.6218 63.8161 42.402 61.4899L41.0082 61.6215C41.1553 63.178 40.0314 64.5363 38.475 64.6834L38.6066 66.0771ZM42.402 61.4899L39.1084 26.6231L37.7146 26.7548L41.0082 61.6215L42.402 61.4899ZM38.4773 27.3858L47.7182 26.5129L47.5865 25.1191L38.3457 25.992L38.4773 27.3858ZM47.7182 26.5129C49.9769 26.2995 51.6547 24.249 51.4359 21.933L50.0421 22.0646C50.1901 23.6313 49.0552 24.9804 47.5865 25.1191L47.7182 26.5129ZM51.4359 21.933L50.5777 12.8474L49.1839 12.9791L50.0421 22.0646L51.4359 21.933ZM50.5777 12.8474C50.3653 10.5988 48.324 8.90991 46.0754 9.12232L46.2071 10.5161C47.6859 10.3764 49.0442 11.5003 49.1839 12.9791L50.5777 12.8474ZM83.543 15.3C66.789 15.3 54.061 27.7688 54.061 44.236H55.461C55.461 28.5672 67.5369 16.7 83.543 16.7V15.3ZM54.061 44.236C54.061 60.7799 66.7878 73.25 83.543 73.25V71.85C67.5382 71.85 55.461 59.9841 55.461 44.236H54.061ZM83.543 73.25C100.298 73.25 113.025 60.7799 113.025 44.236H111.625C111.625 59.9841 99.5478 71.85 83.543 71.85V73.25ZM113.025 44.236C113.025 27.7688 100.297 15.3 83.543 15.3V16.7C99.549 16.7 111.625 28.5672 111.625 44.236H113.025ZM83.543 54.768C77.4491 54.768 73.011 50.4729 73.011 44.236H71.611C71.611 51.2591 76.6888 56.168 83.543 56.168V54.768ZM73.011 44.236C73.011 38.0738 77.4523 33.704 83.543 33.704V32.304C76.6856 32.304 71.611 37.2942 71.611 44.236H73.011ZM83.543 33.704C89.6336 33.704 94.075 38.0738 94.075 44.236H95.475C95.475 37.2942 90.4003 32.304 83.543 32.304V33.704ZM94.075 44.236C94.075 50.4729 89.6368 54.768 83.543 54.768V56.168C90.3971 56.168 95.475 51.2591 95.475 44.236H94.075ZM145.543 6.3C128.789 6.3 116.061 18.7688 116.061 35.236H117.461C117.461 19.5672 129.537 7.7 145.543 7.7V6.3ZM116.061 35.236C116.061 51.7799 128.788 64.25 145.543 64.25V62.85C129.538 62.85 117.461 50.9841 117.461 35.236H116.061ZM145.543 64.25C162.298 64.25 175.025 51.7799 175.025 35.236H173.625C173.625 50.9841 161.548 62.85 145.543 62.85V64.25ZM175.025 35.236C175.025 18.7688 162.297 6.3 145.543 6.3V7.7C161.549 7.7 173.625 19.5672 173.625 35.236H175.025ZM145.543 45.768C139.449 45.768 135.011 41.4729 135.011 35.236H133.611C133.611 42.2591 138.689 47.168 145.543 47.168V45.768ZM135.011 35.236C135.011 29.0738 139.452 24.704 145.543 24.704V23.304C138.686 23.304 133.611 28.2942 133.611 35.236H135.011ZM145.543 24.704C151.634 24.704 156.075 29.0738 156.075 35.236H157.475C157.475 28.2942 152.4 23.304 145.543 23.304V24.704ZM156.075 35.236C156.075 41.4729 151.637 45.768 145.543 45.768V47.168C152.397 47.168 157.475 42.2591 157.475 35.236H156.075ZM408.427 71.1817L394.931 45.4967L393.692 46.1478L407.188 71.8329L408.427 71.1817ZM372.245 44.1725L355.695 67.9232L356.844 68.7236L373.394 44.9729L372.245 44.1725ZM375.229 71.0222L383.316 59.018L382.155 58.2358L374.068 70.2399L375.229 71.0222ZM382.11 58.9407L388.581 71.8442L389.832 71.2166L383.362 58.3131L382.11 58.9407ZM388.591 71.8641C389.408 73.3703 390.978 74.373 392.697 74.4793L392.784 73.0819C391.545 73.0054 390.408 72.278 389.822 71.1967L388.591 71.8641ZM392.697 74.4793L405.776 75.2872L405.863 73.8899L392.784 73.0819L392.697 74.4793ZM405.776 75.2872C407.955 75.4218 409.453 73.1193 408.426 71.1798L407.189 71.8348C407.702 72.8037 406.954 73.9573 405.863 73.8899L405.776 75.2872ZM358.755 54.9041L338.753 8.84166L337.468 9.39931L357.471 55.4617L358.755 54.9041Z" fill="black"/>
</svg>
